<?xml version="1.0" encoding="iso-8859-1"?>
<!-- Uploaded to: SVG Repo, www.svgrepo.com, Generator: SVG Repo Mixer Tools -->
<svg version="1.1" id="Layer_1" xmlns="http://www.w3.org/2000/svg" xmlns:xlink="http://www.w3.org/1999/xlink" 
	 viewBox="0 0 392.598 392.598" xml:space="preserve">
<rect x="21.851" y="74.699" style="fill:#FFFFFF;" width="348.962" height="243.071"/>
<path style="fill:#194F82;" d="M381.737,52.913H10.925C4.913,52.913,0,57.762,0,63.838V328.76c0,6.012,4.848,10.925,10.925,10.925
	h370.747c6.012,0,10.925-4.848,10.925-10.925V63.774C392.598,57.762,387.749,52.913,381.737,52.913z M370.812,317.77H21.851V74.699
	h348.962L370.812,317.77L370.812,317.77z"/>
<rect x="43.636" y="96.485" style="fill:#FFC10D;" width="305.325" height="199.499"/>
<path style="fill:#56ACE0;" d="M298.408,121.956c-8.339-0.065-15.968,4.59-20.558,11.572c-3.814,5.689-12.218,5.689-15.968,0
	c-4.59-6.982-12.218-11.636-20.558-11.572c-12.929,0.129-23.273,10.667-23.273,23.596c0,15.774,28.444,47.127,51.782,67.749
	c23.402-20.945,51.846-52.493,51.846-67.749C321.681,132.622,311.208,122.149,298.408,121.956z"/>
<g>
	<path style="fill:#194F82;" d="M298.085,101.592c-10.537,0-20.493,3.685-28.251,10.279c-7.822-6.594-17.778-10.279-28.251-10.279
		c-24.242,0-44.024,19.782-44.024,44.024c0,33.099,54.756,80.032,65.745,89.147l0.453,0.388c3.556,2.909,8.727,2.909,12.218-0.065
		l0.453-0.388c10.99-9.18,65.681-56.889,65.681-89.083C342.174,121.309,322.392,101.592,298.085,101.592z M269.834,213.301
		c-23.402-20.622-51.782-51.976-51.782-67.75c0-12.929,10.408-23.402,23.273-23.596c8.339-0.065,15.968,4.59,20.558,11.572
		c3.814,5.689,12.218,5.689,15.968,0c4.59-6.982,12.218-11.636,20.558-11.572c12.929,0.129,23.273,10.667,23.273,23.596
		C321.681,160.873,293.236,192.42,269.834,213.301z"/>
	<path style="fill:#194F82;" d="M63.16,125.511h46.933c5.624,0,10.214-4.59,10.214-10.214c0-5.624-4.59-10.214-10.214-10.214H63.16
		c-5.624,0-10.214,4.59-10.214,10.214C52.945,120.986,57.471,125.511,63.16,125.511z"/>
	<path style="fill:#194F82;" d="M63.16,165.333h85.398c5.624,0,10.214-4.59,10.214-10.214c0-5.624-4.59-10.214-10.214-10.214H63.16
		c-5.624,0-10.214,4.59-10.214,10.214C53.01,160.743,57.471,165.333,63.16,165.333z"/>
	<path style="fill:#194F82;" d="M63.16,205.22h85.398c5.624,0,10.214-4.59,10.214-10.214c0-5.624-4.59-10.214-10.214-10.214H63.16
		c-5.624,0-10.214,4.59-10.214,10.214C53.01,200.63,57.471,205.22,63.16,205.22z"/>
	<path style="fill:#194F82;" d="M323.038,272.517H216.63c-5.624,0-10.214,4.59-10.214,10.214c0,5.624,4.59,10.214,10.214,10.214
		h106.408c5.624,0,10.214-4.59,10.214-10.214C333.253,277.042,328.727,272.517,323.038,272.517z"/>
</g>
</svg>